<svg width="24" height="24" viewBox="0 0 24 24" fill="none" xmlns="http://www.w3.org/2000/svg">
<g clip-path="url(#clip0_14_2200)">
<path d="M18.3109 14.2301C17.9299 14.0595 17.4885 14.2316 17.3205 14.6096C17.3051 14.643 15.7706 17.9895 11.943 18.0345C11.9194 18.0345 11.8961 18.0353 11.8725 18.0353C8.27102 18.0353 6.71775 14.7454 6.65327 14.604C6.48192 14.229 6.03942 14.0621 5.66142 14.232C5.28417 14.4026 5.11655 14.8463 5.28717 15.2242C5.36705 15.4016 7.28817 19.5353 11.8695 19.5353C11.8995 19.5353 11.9303 19.5345 11.9603 19.5345C16.7385 19.4783 18.6128 15.3941 18.6897 15.2205C18.8595 14.8418 18.6889 14.3985 18.3109 14.2301L18.3109 14.2301ZM12 0C5.37225 0 0 5.37225 0 12C0 18.6277 5.37225 24 12 24C18.6278 24 24 18.6277 24 12C24 5.37225 18.6278 0 12 0ZM12 22.5C6.21037 22.5 1.5 17.7896 1.5 12C1.5 6.21037 6.21037 1.5 12 1.5C17.7896 1.5 22.5 6.21037 22.5 12C22.5 17.7896 17.7896 22.5 12 22.5ZM8.23837 11.2459C9.06487 11.2459 9.73462 10.5758 9.73462 9.75C9.73462 8.92425 9.06487 8.25412 8.23837 8.25412C7.4115 8.25412 6.74213 8.92423 6.74213 9.75C6.74213 10.5758 7.4115 11.2459 8.23837 11.2459ZM15.7384 11.2459C16.5649 11.2459 17.2346 10.5758 17.2346 9.75C17.2346 8.92425 16.5649 8.25412 15.7384 8.25412C14.9115 8.25412 14.2421 8.92423 14.2421 9.75C14.2421 10.5758 14.9115 11.2459 15.7384 11.2459Z" fill="#FF1616"/>
</g>
<defs>
<clipPath id="clip0_14_2200">
<rect width="24" height="24" fill="white"/>
</clipPath>
</defs>
</svg>
