<svg width="336" height="105" viewBox="0 0 336 105" fill="none" xmlns="http://www.w3.org/2000/svg">
<path d="M80.66 103.593C80.924 103.574 81.2789 103.519 81.5385 103.545C94.4521 104.599 106.993 104.123 119.469 103.413C125.268 103.083 130.989 102.654 136.71 102.226C137.151 102.179 137.593 102.132 138.052 101.906C137.009 101.848 135.971 101.745 134.928 101.687C112.799 100.17 91.1625 97.2089 70.206 91.779C69.1854 91.4967 68.0651 91.3402 66.9403 91.2286C54.1707 89.5996 41.6317 87.4047 29.7534 83.8264C23.3927 81.8822 17.5045 79.5773 12.4613 76.6771C2.97166 71.0263 -0.874465 64.8486 0.840811 58.0906C1.86241 53.9355 4.7609 50.2382 8.50689 46.8061C11.0996 44.437 14.1981 42.2539 17.5474 40.1862C18.1063 39.8341 18.7562 39.4457 19.06 39.0231C23.7568 32.1533 31.6485 26.5514 41.559 21.7385C53.1199 16.1384 66.6378 11.955 81.2873 8.69901C103.971 3.70427 128.169 1.07851 153.587 0.249268C168.486 -0.219827 183.583 -0.0353694 198.695 0.875161C219.539 2.12797 240.091 4.57438 260.289 8.84219C275.521 12.074 289.968 16.1789 303.045 21.778C311.263 25.2649 318.472 29.2404 324.303 33.8942C330.536 38.9049 334.466 44.2306 335.302 49.9285C335.71 52.8671 335.254 55.7199 333.764 58.4248C331.853 61.8578 329.509 65.2478 326.067 68.2572C321.003 72.6453 314.194 76.1357 306.39 79.0747C296.226 82.9116 284.94 85.7314 272.932 87.8911C255.765 90.9879 237.962 93.433 220.092 95.6902C200.537 98.188 180.758 100.301 160.76 101.985C144.284 103.384 127.744 104.551 110.846 104.912C101.651 105.132 92.3181 104.976 82.9784 104.004C82.1997 103.927 81.5075 103.858 80.7288 103.781C80.6467 103.728 80.6556 103.638 80.66 103.593ZM116.255 90.823C121.724 91.1844 131.013 91.7889 140.397 92.3123C143.611 92.4953 146.925 92.5524 150.08 92.4578C159.812 92.1101 169.316 91.4228 178.75 90.5475C198.857 88.6479 218.27 85.8192 236.435 81.4629C249.323 78.3491 261.313 74.6028 271.678 69.6086C278.284 66.4149 284.06 62.7767 287.899 58.4029C291.148 54.6951 292.766 50.6897 291.715 46.2837C290.596 41.6898 286.815 37.5109 281.073 33.7262C275.335 29.8967 268.388 26.8076 260.696 24.188C247.682 19.7271 233.721 16.8931 219.243 14.8681C204.505 12.8174 189.835 11.8601 175.098 11.5755C155.649 11.2309 136.773 12.1658 118.469 14.3801C98.0451 16.8368 78.8769 20.7313 61.7035 26.5444C51.9433 29.8327 43.1772 33.6724 36.0618 38.4909C29.5275 42.7331 24.9477 47.5315 23.8533 53.3096C22.9074 58.4685 25.034 63.4794 30.6789 68.2506C34.8726 71.7911 40.4438 74.6532 46.6604 77.1717C55.4018 80.6653 65.0238 83.2047 75.0493 85.1955C87.3022 87.6337 99.7257 89.2284 116.255 90.823ZM197.539 10.8132C197.53 10.9028 197.612 10.9563 197.604 11.046C199.247 11.209 200.891 11.3721 202.535 11.5352C212.753 12.4583 222.845 13.7765 232.793 15.669C244.203 17.7971 255.196 20.6084 265.399 24.3376C273.324 27.252 280.417 30.6273 285.942 34.8433C294.068 41.0379 296.754 47.4628 293.996 54.1626C292.178 58.4199 288.496 62.0848 283.712 65.4138C277.524 69.6904 269.927 73.1932 261.586 76.2601C250.44 80.3164 238.253 83.4092 225.422 85.94C209.921 88.9757 193.725 91.0821 177.071 92.5092C176.279 92.5664 175.483 92.6686 174.691 92.7259C175.283 92.9205 175.716 92.9634 176.244 92.9252C184.825 92.735 193.483 92.643 201.991 92.3097C222.693 91.4654 242.869 89.7538 262.226 86.6025C276.432 84.2987 289.839 81.2364 301.804 76.8537C309.326 74.1132 316.022 70.8833 321.47 67.0314C325.886 63.8922 328.256 60.2331 328.746 56.1609C329.454 50.7521 326.467 45.6105 320.658 40.7325C315.177 36.0681 307.868 32.2186 299.637 28.8662C286.028 23.3502 271.022 19.5973 255.217 16.8521C242.505 14.6401 229.736 13.011 216.809 12.0908C210.393 11.5902 203.964 11.2241 197.539 10.8132ZM331.17 47.5262C331.257 47.5348 331.348 47.4985 331.348 47.4985C331.279 47.3106 331.297 47.1312 331.223 46.9881C330.098 43.3444 327.561 39.8325 323.96 36.4866C318.19 31.2049 310.589 26.7829 301.623 22.9049C291.568 18.5565 280.637 15.1174 269.034 12.2909C245.4 6.55011 221.15 3.5104 196.476 2.10414C183.618 1.37193 170.967 1.20359 158.271 1.48368C132.961 2.09729 108.786 4.49883 86.1236 9.26936C70.8684 12.4653 56.9091 16.6954 44.8158 22.3786C37.3052 25.89 30.884 29.8717 26.0491 34.5995C25.763 34.8428 25.559 35.1396 25.2684 35.4277C25.792 35.4344 26.0648 35.3256 26.3376 35.2168C37.5303 29.8066 50.1963 25.4029 64.0848 21.8902C105.036 11.5078 149.811 7.52733 197.789 9.16255C215.291 9.76671 232.694 11.3574 249.988 14.0692C263.323 16.1619 276.242 18.9378 288.539 22.6936C298.039 25.5832 306.789 28.9871 314.491 33.2831C321.695 37.3034 327.371 41.7607 330.531 46.9194C330.855 47.178 331.015 47.3297 331.17 47.5262ZM15.9157 44.3261C15.1616 44.8852 14.6027 45.2373 14.1258 45.6428C9.01122 49.6637 5.00369 53.9754 3.88916 59.0723C2.77464 64.1692 5.17402 69.0712 11.5376 73.6421C15.9442 76.7962 21.4687 79.2461 27.6386 81.3525C35.7499 84.1496 44.4687 86.1013 53.4049 87.6218C54.8669 87.8574 56.2423 88.0844 57.7043 88.32C26.7347 77.2327 11.3662 62.9838 15.9157 44.3261ZM84.1534 92.9816C84.149 93.0264 84.0536 93.1075 84.0492 93.1524C84.3909 93.2315 84.8146 93.3641 85.1563 93.4433C92.4353 94.9352 99.7408 96.1581 107.151 97.2101C120.335 99.0615 133.659 100.383 146.959 101.069C148.347 101.161 149.745 101.164 151.069 101.024C171.791 99.0946 192.289 96.781 212.549 94.2174C212.99 94.1706 213.44 94.0342 213.882 93.9874C212.935 93.8482 212.06 93.852 211.182 93.9007C195.292 94.679 179.359 95.0002 163.134 94.749C154.411 94.6082 145.692 94.4225 137.025 94.6042C122.486 94.9731 107.84 94.6521 93.0871 93.6414C90.1455 93.3496 87.1084 93.1389 84.1534 92.9816ZM53.2294 27.4245C53.2338 27.3796 53.1517 27.3262 53.1561 27.2814C51.4414 27.8358 49.7268 28.3902 48.0986 28.9532C38.7843 32.1498 30.1224 35.8187 22.5366 40.0925C21.7957 40.5171 21.0416 41.0762 20.7245 41.6334C18.5049 45.5339 17.4922 49.5994 18.2054 53.8814C19.5921 62.8489 26.4934 70.824 38.8185 77.8428C46.8393 82.4422 56.2817 85.9147 66.4739 88.873C69.4445 89.7564 72.5371 90.2896 75.7384 90.6071C89.1534 91.8927 102.626 92.5953 115.97 92.8323C117.977 92.8504 119.985 92.8684 121.997 92.8416C100.968 90.8007 97.7716 90.4383 83.3203 88.1443C73.8606 86.6172 64.7091 84.6225 55.888 81.9361C46.8983 79.1878 38.6627 75.8802 32.1084 71.4716C25.3898 66.9561 21.5973 62.0064 20.9947 56.6033C20.4722 52.1591 22.1859 48.0726 25.4482 44.2303C29.6996 39.2182 36.1297 35.1468 43.6491 31.5457C46.8455 30.142 50.033 28.8281 53.2294 27.4245Z" fill="#FF1616"/>
</svg>
